<svg width="960" height="208" viewBox="0 0 960 208" fill="none" xmlns="http://www.w3.org/2000/svg">
<path d="M10.8795 110.962L96.7425 110.962C98.9396 110.962 101.045 111.845 102.585 113.412L154.092 165.837C154.542 166.295 155.052 166.695 155.581 167.059C165.372 173.787 167.158 186.412 167.471 195.637C167.627 200.227 163.769 204 159.177 204H135.605H104.81H89.7407H80.8955C38.2185 204 3.64307 169.363 3.71821 126.687L3.73333 118.095C3.74027 114.153 6.93767 110.962 10.8795 110.962Z" fill="#C0ED54"/>
<path d="M80.8955 204V204C38.2185 204 3.64307 169.363 3.71821 126.687L3.73333 118.095C3.74027 114.153 6.93767 110.962 10.8795 110.962L96.7425 110.962C98.9396 110.962 101.045 111.845 102.585 113.412L154.092 165.837C154.542 166.295 155.052 166.695 155.581 167.059C165.372 173.787 167.158 186.412 167.471 195.637C167.627 200.227 163.769 204 159.177 204H135.605M80.8955 204C71.8865 200.339 65.1707 189.57 63.6966 176.36M80.8955 204H89.7407H135.605M135.605 204C126.104 200.123 114.966 189.14 112.017 173.849M104.81 204C97.322 197.346 89.7407 187.417 89.7407 176.36" stroke="#033225" stroke-width="6.55198" stroke-linecap="round"/>
<path d="M222.252 118.119L222.252 134.549C222.252 172.906 191.158 204 152.802 204C150.494 204 148.812 201.794 149.03 199.496C151.692 171.435 114.106 131.356 107.429 145.851C103.1 155.25 88.3111 158.058 77.5572 158.827C71.8278 159.236 68.2208 153.377 70.6055 148.151L72.4943 144.012C73.1648 142.543 74.2547 141.305 75.6269 140.453L121.17 112.193C122.467 111.388 123.962 110.962 125.488 110.962H148.215H215.095C219.048 110.962 222.252 114.166 222.252 118.119Z" fill="#033225" stroke="#033225" stroke-width="6.55198" stroke-linecap="round"/>
<path d="M182.779 4.00017H214.228C218.752 4.00017 222.418 7.66695 222.418 12.1902V31.6823C222.418 38.0262 221.517 44.1595 219.835 49.9611C211.922 77.2518 186.74 97.2021 156.899 97.2021H117.259V69.52C117.259 33.3344 146.593 4.00017 182.779 4.00017Z" fill="#033225"/>
<path d="M117.259 97.2021V69.52C117.259 33.3344 146.593 4.00017 182.779 4.00017H214.228C218.752 4.00017 222.418 7.66695 222.418 12.1902V31.6823C222.418 67.8679 193.084 97.2021 156.899 97.2021H117.259ZM117.259 97.2021C146.907 71.158 155.424 33.4841 222.418 50.6012" stroke="#C0ED54" stroke-width="6.55198"/>
<path d="M40.5684 4.00017H12.1039C7.39755 4.00017 3.58228 7.81545 3.58228 12.5218L3.58228 29.0289C3.58228 36.2751 4.71282 43.2573 6.80714 49.8087C15.5948 77.2979 41.3507 97.2021 71.7556 97.2021H108.742V72.1734C108.742 34.5224 78.2194 4.00017 40.5684 4.00017Z" fill="#C0ED54"/>
<path d="M108.742 97.2021V72.1734C108.742 34.5224 78.2194 4.00017 40.5684 4.00017H12.1039C7.39755 4.00017 3.58228 7.81545 3.58228 12.5218L3.58228 29.0289C3.58228 66.6799 34.1045 97.2021 71.7556 97.2021H108.742ZM108.742 97.2021C79.0939 71.158 70.5763 33.4841 3.58228 50.6012" stroke="#033225" stroke-width="6.55198"/>
<path d="M363.866 156V60.64H427.994V77.92H383.706V99.552H425.434V116.832H383.706V138.72H427.994V156H363.866ZM472.137 157.536C465.14 157.536 458.825 155.957 453.193 152.8C447.647 149.557 443.209 145.163 439.881 139.616C436.639 134.069 435.017 127.84 435.017 120.928C435.017 114.016 436.639 107.829 439.881 102.368C443.124 96.8213 447.561 92.4693 453.193 89.312C458.825 86.1547 465.14 84.576 472.137 84.576C477.343 84.576 482.164 85.472 486.601 87.264C491.039 89.056 494.836 91.5733 497.993 94.816C501.151 97.9733 503.412 101.728 504.777 106.08L488.137 113.248C486.943 109.749 484.895 106.976 481.993 104.928C479.177 102.88 475.892 101.856 472.137 101.856C468.809 101.856 465.823 102.667 463.177 104.288C460.617 105.909 458.569 108.171 457.033 111.072C455.583 113.973 454.857 117.301 454.857 121.056C454.857 124.811 455.583 128.139 457.033 131.04C458.569 133.941 460.617 136.203 463.177 137.824C465.823 139.445 468.809 140.256 472.137 140.256C475.977 140.256 479.305 139.232 482.121 137.184C484.937 135.136 486.943 132.363 488.137 128.864L504.777 136.16C503.497 140.256 501.279 143.925 498.121 147.168C494.964 150.411 491.167 152.971 486.729 154.848C482.292 156.64 477.428 157.536 472.137 157.536ZM550.771 157.536C543.859 157.536 537.545 155.957 531.827 152.8C526.195 149.643 521.673 145.333 518.259 139.872C514.931 134.325 513.267 128.053 513.267 121.056C513.267 113.973 514.931 107.701 518.259 102.24C521.673 96.7787 526.195 92.4693 531.827 89.312C537.545 86.1547 543.859 84.576 550.771 84.576C557.683 84.576 563.955 86.1547 569.587 89.312C575.219 92.4693 579.699 96.7787 583.027 102.24C586.441 107.701 588.147 113.973 588.147 121.056C588.147 128.053 586.441 134.325 583.027 139.872C579.699 145.333 575.219 149.643 569.587 152.8C563.955 155.957 557.683 157.536 550.771 157.536ZM550.771 140.256C554.27 140.256 557.299 139.445 559.859 137.824C562.505 136.203 564.553 133.941 566.003 131.04C567.539 128.139 568.307 124.811 568.307 121.056C568.307 117.301 567.539 114.016 566.003 111.2C564.553 108.299 562.505 106.037 559.859 104.416C557.299 102.709 554.27 101.856 550.771 101.856C547.273 101.856 544.201 102.709 541.555 104.416C538.91 106.037 536.819 108.299 535.283 111.2C533.833 114.016 533.107 117.301 533.107 121.056C533.107 124.811 533.833 128.139 535.283 131.04C536.819 133.941 538.91 136.203 541.555 137.824C544.201 139.445 547.273 140.256 550.771 140.256Z" fill="#C0ED54"/>
<path d="M600.866 156V60.64H641.186C647.757 60.64 653.389 61.7493 658.082 63.968C662.776 66.1867 666.36 69.3867 668.834 73.568C671.309 77.664 672.546 82.656 672.546 88.544C672.546 92.7253 671.394 96.736 669.09 100.576C666.786 104.331 662.989 107.488 657.698 110.048V100.32C662.733 102.283 666.616 104.629 669.346 107.36C672.077 110.091 673.954 113.077 674.978 116.32C676.002 119.477 676.514 122.805 676.514 126.304C676.514 135.691 673.4 142.987 667.17 148.192C660.941 153.397 652.28 156 641.186 156H600.866ZM620.706 138.72H643.49C647.501 138.72 650.701 137.568 653.09 135.264C655.48 132.96 656.674 129.973 656.674 126.304C656.674 122.549 655.48 119.52 653.09 117.216C650.701 114.912 647.501 113.76 643.49 113.76H620.706V138.72ZM620.706 96.48H642.594C645.666 96.48 648.098 95.6267 649.89 93.92C651.768 92.128 652.706 89.7813 652.706 86.88C652.706 83.9787 651.768 81.6747 649.89 79.968C648.098 78.176 645.666 77.28 642.594 77.28H620.706V96.48ZM709.465 157.536C704.431 157.536 700.079 156.725 696.409 155.104C692.74 153.483 689.924 151.179 687.961 148.192C685.999 145.12 685.017 141.493 685.017 137.312C685.017 133.387 685.913 129.931 687.705 126.944C689.497 123.872 692.228 121.312 695.897 119.264C699.652 117.216 704.303 115.765 709.849 114.912L731.225 111.456V125.536L713.305 128.736C710.575 129.248 708.484 130.144 707.033 131.424C705.583 132.619 704.857 134.368 704.857 136.672C704.857 138.805 705.668 140.469 707.289 141.664C708.911 142.859 710.916 143.456 713.305 143.456C716.463 143.456 719.236 142.773 721.625 141.408C724.015 140.043 725.849 138.208 727.129 135.904C728.495 133.515 729.177 130.912 729.177 128.096V109.92C729.177 107.275 728.111 105.056 725.977 103.264C723.929 101.472 721.113 100.576 717.529 100.576C714.116 100.576 711.087 101.515 708.441 103.392C705.881 105.269 704.004 107.744 702.809 110.816L687.449 103.52C688.815 99.5947 690.991 96.224 693.977 93.408C696.964 90.592 700.548 88.416 704.729 86.88C708.911 85.344 713.476 84.576 718.425 84.576C724.313 84.576 729.519 85.6427 734.041 87.776C738.564 89.9093 742.063 92.896 744.537 96.736C747.097 100.491 748.377 104.885 748.377 109.92V156H730.457V144.736L734.809 143.968C732.761 147.04 730.5 149.6 728.025 151.648C725.551 153.611 722.777 155.061 719.705 156C716.633 157.024 713.22 157.536 709.465 157.536ZM762.458 156V86.112H780.378V99.936L779.354 96.864C780.976 92.6827 783.578 89.6107 787.162 87.648C790.832 85.6 795.098 84.576 799.962 84.576C805.253 84.576 809.861 85.6853 813.786 87.904C817.797 90.1227 820.912 93.2373 823.13 97.248C825.349 101.173 826.458 105.781 826.458 111.072V156H807.258V115.168C807.258 112.437 806.704 110.091 805.594 108.128C804.57 106.165 803.077 104.629 801.114 103.52C799.237 102.411 797.018 101.856 794.458 101.856C791.984 101.856 789.765 102.411 787.802 103.52C785.84 104.629 784.304 106.165 783.194 108.128C782.17 110.091 781.658 112.437 781.658 115.168V156H762.458ZM839.083 156V59.104H858.283V121.184L851.115 118.88L881.963 86.112H905.643L880.299 114.272L905.515 156H883.755L862.635 120.544L873.771 117.728L852.395 141.024L858.283 129.888V156H839.083ZM923.555 156V136.8H942.755V156H923.555Z" fill="#0B4221"/>
<path d="M600.866 156V60.64H641.186C647.757 60.64 653.389 61.7493 658.082 63.968C662.776 66.1867 666.36 69.3867 668.834 73.568C671.309 77.664 672.546 82.656 672.546 88.544C672.546 92.7253 671.394 96.736 669.09 100.576C666.786 104.331 662.989 107.488 657.698 110.048V100.32C662.733 102.283 666.616 104.629 669.346 107.36C672.077 110.091 673.954 113.077 674.978 116.32C676.002 119.477 676.514 122.805 676.514 126.304C676.514 135.691 673.4 142.987 667.17 148.192C660.941 153.397 652.28 156 641.186 156H600.866ZM620.706 138.72H643.49C647.501 138.72 650.701 137.568 653.09 135.264C655.48 132.96 656.674 129.973 656.674 126.304C656.674 122.549 655.48 119.52 653.09 117.216C650.701 114.912 647.501 113.76 643.49 113.76H620.706V138.72ZM620.706 96.48H642.594C645.666 96.48 648.098 95.6267 649.89 93.92C651.768 92.128 652.706 89.7813 652.706 86.88C652.706 83.9787 651.768 81.6747 649.89 79.968C648.098 78.176 645.666 77.28 642.594 77.28H620.706V96.48ZM709.465 157.536C704.431 157.536 700.079 156.725 696.409 155.104C692.74 153.483 689.924 151.179 687.961 148.192C685.999 145.12 685.017 141.493 685.017 137.312C685.017 133.387 685.913 129.931 687.705 126.944C689.497 123.872 692.228 121.312 695.897 119.264C699.652 117.216 704.303 115.765 709.849 114.912L731.225 111.456V125.536L713.305 128.736C710.575 129.248 708.484 130.144 707.033 131.424C705.583 132.619 704.857 134.368 704.857 136.672C704.857 138.805 705.668 140.469 707.289 141.664C708.911 142.859 710.916 143.456 713.305 143.456C716.463 143.456 719.236 142.773 721.625 141.408C724.015 140.043 725.849 138.208 727.129 135.904C728.495 133.515 729.177 130.912 729.177 128.096V109.92C729.177 107.275 728.111 105.056 725.977 103.264C723.929 101.472 721.113 100.576 717.529 100.576C714.116 100.576 711.087 101.515 708.441 103.392C705.881 105.269 704.004 107.744 702.809 110.816L687.449 103.52C688.815 99.5947 690.991 96.224 693.977 93.408C696.964 90.592 700.548 88.416 704.729 86.88C708.911 85.344 713.476 84.576 718.425 84.576C724.313 84.576 729.519 85.6427 734.041 87.776C738.564 89.9093 742.063 92.896 744.537 96.736C747.097 100.491 748.377 104.885 748.377 109.92V156H730.457V144.736L734.809 143.968C732.761 147.04 730.5 149.6 728.025 151.648C725.551 153.611 722.777 155.061 719.705 156C716.633 157.024 713.22 157.536 709.465 157.536ZM762.458 156V86.112H780.378V99.936L779.354 96.864C780.976 92.6827 783.578 89.6107 787.162 87.648C790.832 85.6 795.098 84.576 799.962 84.576C805.253 84.576 809.861 85.6853 813.786 87.904C817.797 90.1227 820.912 93.2373 823.13 97.248C825.349 101.173 826.458 105.781 826.458 111.072V156H807.258V115.168C807.258 112.437 806.704 110.091 805.594 108.128C804.57 106.165 803.077 104.629 801.114 103.52C799.237 102.411 797.018 101.856 794.458 101.856C791.984 101.856 789.765 102.411 787.802 103.52C785.84 104.629 784.304 106.165 783.194 108.128C782.17 110.091 781.658 112.437 781.658 115.168V156H762.458ZM839.083 156V59.104H858.283V121.184L851.115 118.88L881.963 86.112H905.643L880.299 114.272L905.515 156H883.755L862.635 120.544L873.771 117.728L852.395 141.024L858.283 129.888V156H839.083ZM923.555 156V136.8H942.755V156H923.555Z" fill="black" fill-opacity="0.2"/>
</svg>
