<svg width="219" height="219" viewBox="0 0 219 219" fill="none" xmlns="http://www.w3.org/2000/svg">
<g clip-path="url(#clip0_311_45)">
<path d="M7.46125 115.962L93.3242 115.962C95.5214 115.962 97.6265 116.845 99.1663 118.412L150.674 170.837C151.124 171.295 151.634 171.695 152.163 172.059C161.953 178.787 163.739 191.412 164.053 200.637C164.209 205.227 160.351 209 155.759 209H132.186H101.392H86.3225H77.4773C34.8003 209 0.224859 174.363 0.299994 131.687L0.31512 123.095C0.32206 119.153 3.51946 115.962 7.46125 115.962Z" fill="#C0ED54"/>
<path d="M77.4773 209V209C34.8003 209 0.224859 174.363 0.299994 131.687L0.31512 123.095C0.32206 119.153 3.51946 115.962 7.46125 115.962L93.3242 115.962C95.5214 115.962 97.6265 116.845 99.1663 118.412L150.674 170.837C151.124 171.295 151.634 171.695 152.163 172.059C161.953 178.787 163.739 191.412 164.053 200.637C164.209 205.227 160.351 209 155.759 209H132.186M77.4773 209C68.4683 205.339 61.7525 194.57 60.2783 181.36M77.4773 209H86.3225H132.186M132.186 209C122.686 205.123 111.548 194.14 108.599 178.849M101.392 209C93.9038 202.346 86.3225 192.417 86.3225 181.36" stroke="#033225" stroke-width="6.55198" stroke-linecap="round"/>
<path d="M218.834 123.119L218.834 139.549C218.834 177.906 187.74 209 149.383 209C147.075 209 145.394 206.794 145.612 204.496C148.274 176.435 110.688 136.356 104.011 150.851C99.6814 160.25 84.8929 163.058 74.139 163.827C68.4096 164.236 64.8026 158.377 67.1873 153.151L69.0761 149.012C69.7466 147.543 70.8365 146.305 72.2087 145.453L117.752 117.193C119.049 116.388 120.544 115.962 122.07 115.962H144.797H211.677C215.63 115.962 218.834 119.166 218.834 123.119Z" fill="#033225" stroke="#033225" stroke-width="6.55198" stroke-linecap="round"/>
<path d="M179.361 9.00017H210.81C215.333 9.00017 219 12.667 219 17.1902V36.6823C219 43.0262 218.099 49.1595 216.417 54.9611C208.504 82.2518 183.322 102.202 153.48 102.202H113.841V74.52C113.841 38.3344 143.175 9.00017 179.361 9.00017Z" fill="#033225"/>
<path d="M113.841 102.202V74.52C113.841 38.3344 143.175 9.00017 179.361 9.00017H210.81C215.333 9.00017 219 12.667 219 17.1902V36.6823C219 72.8679 189.666 102.202 153.48 102.202H113.841ZM113.841 102.202C143.489 76.158 152.006 38.4841 219 55.6012" stroke="#C0ED54" stroke-width="6.55198"/>
<path d="M37.1501 9.00017H8.68572C3.97934 9.00017 0.164063 12.8155 0.164063 17.5218L0.164063 34.0289C0.164063 41.2751 1.29461 48.2573 3.38893 54.8087C12.1766 82.2979 37.9325 102.202 68.3373 102.202H105.323V77.1734C105.323 39.5224 74.8012 9.00017 37.1501 9.00017Z" fill="#C0ED54"/>
<path d="M105.323 102.202V77.1734C105.323 39.5224 74.8012 9.00017 37.1501 9.00017H8.68572C3.97934 9.00017 0.164063 12.8155 0.164063 17.5218L0.164063 34.0289C0.164063 71.6799 30.6863 102.202 68.3373 102.202H105.323ZM105.323 102.202C75.6757 76.158 67.1581 38.4841 0.164063 55.6012" stroke="#033225" stroke-width="6.55198"/>
</g>
<defs>
<clipPath id="clip0_311_45">
<rect width="218.84" height="218.84" fill="white"/>
</clipPath>
</defs>
</svg>
