<svg width="960" height="208" viewBox="0 0 960 208" fill="none" xmlns="http://www.w3.org/2000/svg">
<path d="M11.2976 110.961L97.1606 110.961C99.3578 110.961 101.463 111.844 103.003 113.412L154.51 165.837C154.96 166.295 155.47 166.695 155.999 167.059C165.79 173.787 167.576 186.412 167.889 195.637C168.046 200.227 164.188 204 159.595 204H136.023H105.228H90.1588H81.3137C38.6367 204 4.06122 169.363 4.13636 126.686L4.15148 118.095C4.15842 114.153 7.35582 110.961 11.2976 110.961Z" fill="#F8F9F8"/>
<path d="M81.3137 204V204C38.6367 204 4.06122 169.363 4.13636 126.686L4.15148 118.095C4.15842 114.153 7.35582 110.961 11.2976 110.961L97.1606 110.961C99.3578 110.961 101.463 111.844 103.003 113.412L154.51 165.837C154.96 166.295 155.47 166.695 155.999 167.059C165.79 173.787 167.576 186.412 167.889 195.637C168.046 200.227 164.188 204 159.595 204H136.023M81.3137 204C72.3047 200.338 65.5889 189.57 64.1147 176.36M81.3137 204H90.1588H136.023M136.023 204C126.522 200.123 115.384 189.139 112.436 173.848M105.228 204C97.7402 197.346 90.1588 187.416 90.1588 176.36" stroke="#BABDBC" stroke-width="6.55198" stroke-linecap="round"/>
<path d="M222.67 118.119L222.67 134.549C222.671 172.906 191.576 204 153.22 204C150.912 204 149.23 201.794 149.448 199.496C152.11 171.435 114.524 131.356 107.847 145.851C103.518 155.25 88.7293 158.058 77.9754 158.827C72.246 159.236 68.639 153.377 71.0237 148.151L72.9126 144.012C73.583 142.543 74.6729 141.305 76.0452 140.453L121.588 112.193C122.885 111.388 124.381 110.962 125.907 110.962H148.633H215.514C219.466 110.962 222.67 114.166 222.67 118.119Z" fill="#BABDBC" stroke="#BABDBC" stroke-width="6.55198" stroke-linecap="round"/>
<path d="M183.197 4.00017H214.647C219.17 4.00017 222.837 7.66695 222.837 12.1902V31.6823C222.837 38.0262 221.935 44.1595 220.253 49.9611C212.34 77.2518 187.158 97.2021 157.317 97.2021H117.677V69.52C117.677 33.3344 147.011 4.00017 183.197 4.00017Z" fill="#BABDBC"/>
<path d="M117.677 97.2021V69.52C117.677 33.3344 147.011 4.00017 183.197 4.00017H214.647C219.17 4.00017 222.837 7.66695 222.837 12.1902V31.6823C222.837 67.8679 193.502 97.2021 157.317 97.2021H117.677ZM117.677 97.2021C147.325 71.158 155.843 33.4841 222.837 50.6012" stroke="#F8F9F8" stroke-width="6.55198"/>
<path d="M40.9865 4.00017H12.5221C7.8157 4.00017 4.00043 7.81545 4.00043 12.5218L4.00043 29.0289C4.00043 36.2751 5.13097 43.2573 7.22529 49.8087C16.013 77.2979 41.7689 97.2021 72.1737 97.2021H109.16V72.1734C109.16 34.5224 78.6376 4.00017 40.9865 4.00017Z" fill="#F8F9F8"/>
<path d="M109.16 97.2021V72.1734C109.16 34.5224 78.6376 4.00017 40.9865 4.00017H12.5221C7.8157 4.00017 4.00043 7.81545 4.00043 12.5218L4.00043 29.0289C4.00043 66.6799 34.5226 97.2021 72.1737 97.2021H109.16ZM109.16 97.2021C79.5121 71.158 70.9945 33.4841 4.00043 50.6012" stroke="#BABDBC" stroke-width="6.55198"/>
<path d="M364.284 156V60.64H428.412V77.92H384.124V99.552H425.852V116.832H384.124V138.72H428.412V156H364.284ZM472.555 157.536C465.558 157.536 459.243 155.957 453.611 152.8C448.065 149.557 443.627 145.163 440.299 139.616C437.057 134.069 435.435 127.84 435.435 120.928C435.435 114.016 437.057 107.829 440.299 102.368C443.542 96.8213 447.979 92.4693 453.611 89.312C459.243 86.1547 465.558 84.576 472.555 84.576C477.761 84.576 482.582 85.472 487.019 87.264C491.457 89.056 495.254 91.5733 498.411 94.816C501.569 97.9733 503.83 101.728 505.195 106.08L488.555 113.248C487.361 109.749 485.313 106.976 482.411 104.928C479.595 102.88 476.31 101.856 472.555 101.856C469.227 101.856 466.241 102.667 463.595 104.288C461.035 105.909 458.987 108.171 457.451 111.072C456.001 113.973 455.275 117.301 455.275 121.056C455.275 124.811 456.001 128.139 457.451 131.04C458.987 133.941 461.035 136.203 463.595 137.824C466.241 139.445 469.227 140.256 472.555 140.256C476.395 140.256 479.723 139.232 482.539 137.184C485.355 135.136 487.361 132.363 488.555 128.864L505.195 136.16C503.915 140.256 501.697 143.925 498.539 147.168C495.382 150.411 491.585 152.971 487.147 154.848C482.71 156.64 477.846 157.536 472.555 157.536ZM551.189 157.536C544.277 157.536 537.963 155.957 532.245 152.8C526.613 149.643 522.091 145.333 518.677 139.872C515.349 134.325 513.685 128.053 513.685 121.056C513.685 113.973 515.349 107.701 518.677 102.24C522.091 96.7787 526.613 92.4693 532.245 89.312C537.963 86.1547 544.277 84.576 551.189 84.576C558.101 84.576 564.373 86.1547 570.005 89.312C575.637 92.4693 580.117 96.7787 583.445 102.24C586.859 107.701 588.565 113.973 588.565 121.056C588.565 128.053 586.859 134.325 583.445 139.872C580.117 145.333 575.637 149.643 570.005 152.8C564.373 155.957 558.101 157.536 551.189 157.536ZM551.189 140.256C554.688 140.256 557.717 139.445 560.277 137.824C562.923 136.203 564.971 133.941 566.421 131.04C567.957 128.139 568.725 124.811 568.725 121.056C568.725 117.301 567.957 114.016 566.421 111.2C564.971 108.299 562.923 106.037 560.277 104.416C557.717 102.709 554.688 101.856 551.189 101.856C547.691 101.856 544.619 102.709 541.973 104.416C539.328 106.037 537.237 108.299 535.701 111.2C534.251 114.016 533.525 117.301 533.525 121.056C533.525 124.811 534.251 128.139 535.701 131.04C537.237 133.941 539.328 136.203 541.973 137.824C544.619 139.445 547.691 140.256 551.189 140.256Z" fill="#F8F9F8"/>
<path d="M601.284 156V60.64H641.604C648.175 60.64 653.807 61.7493 658.5 63.968C663.194 66.1867 666.778 69.3867 669.252 73.568C671.727 77.664 672.964 82.656 672.964 88.544C672.964 92.7253 671.812 96.736 669.508 100.576C667.204 104.331 663.407 107.488 658.116 110.048V100.32C663.151 102.283 667.034 104.629 669.764 107.36C672.495 110.091 674.372 113.077 675.396 116.32C676.42 119.477 676.932 122.805 676.932 126.304C676.932 135.691 673.818 142.987 667.588 148.192C661.359 153.397 652.698 156 641.604 156H601.284ZM621.124 138.72H643.908C647.919 138.72 651.119 137.568 653.508 135.264C655.898 132.96 657.092 129.973 657.092 126.304C657.092 122.549 655.898 119.52 653.508 117.216C651.119 114.912 647.919 113.76 643.908 113.76H621.124V138.72ZM621.124 96.48H643.012C646.084 96.48 648.516 95.6267 650.308 93.92C652.186 92.128 653.124 89.7813 653.124 86.88C653.124 83.9787 652.186 81.6747 650.308 79.968C648.516 78.176 646.084 77.28 643.012 77.28H621.124V96.48ZM709.883 157.536C704.849 157.536 700.497 156.725 696.827 155.104C693.158 153.483 690.342 151.179 688.379 148.192C686.417 145.12 685.435 141.493 685.435 137.312C685.435 133.387 686.331 129.931 688.123 126.944C689.915 123.872 692.646 121.312 696.315 119.264C700.07 117.216 704.721 115.765 710.267 114.912L731.643 111.456V125.536L713.723 128.736C710.993 129.248 708.902 130.144 707.451 131.424C706.001 132.619 705.275 134.368 705.275 136.672C705.275 138.805 706.086 140.469 707.707 141.664C709.329 142.859 711.334 143.456 713.723 143.456C716.881 143.456 719.654 142.773 722.043 141.408C724.433 140.043 726.267 138.208 727.547 135.904C728.913 133.515 729.595 130.912 729.595 128.096V109.92C729.595 107.275 728.529 105.056 726.395 103.264C724.347 101.472 721.531 100.576 717.947 100.576C714.534 100.576 711.505 101.515 708.859 103.392C706.299 105.269 704.422 107.744 703.227 110.816L687.867 103.52C689.233 99.5947 691.409 96.224 694.395 93.408C697.382 90.592 700.966 88.416 705.147 86.88C709.329 85.344 713.894 84.576 718.843 84.576C724.731 84.576 729.937 85.6427 734.459 87.776C738.982 89.9093 742.481 92.896 744.955 96.736C747.515 100.491 748.795 104.885 748.795 109.92V156H730.875V144.736L735.227 143.968C733.179 147.04 730.918 149.6 728.443 151.648C725.969 153.611 723.195 155.061 720.123 156C717.051 157.024 713.638 157.536 709.883 157.536ZM762.876 156V86.112H780.796V99.936L779.772 96.864C781.394 92.6827 783.996 89.6107 787.58 87.648C791.25 85.6 795.516 84.576 800.38 84.576C805.671 84.576 810.279 85.6853 814.204 87.904C818.215 90.1227 821.33 93.2373 823.548 97.248C825.767 101.173 826.876 105.781 826.876 111.072V156H807.676V115.168C807.676 112.437 807.122 110.091 806.012 108.128C804.988 106.165 803.495 104.629 801.532 103.52C799.655 102.411 797.436 101.856 794.876 101.856C792.402 101.856 790.183 102.411 788.22 103.52C786.258 104.629 784.722 106.165 783.612 108.128C782.588 110.091 782.076 112.437 782.076 115.168V156H762.876ZM839.501 156V59.104H858.701V121.184L851.533 118.88L882.381 86.112H906.061L880.717 114.272L905.933 156H884.173L863.053 120.544L874.189 117.728L852.813 141.024L858.701 129.888V156H839.501ZM923.973 156V136.8H943.173V156H923.973Z" fill="#BABDBC"/>
<path d="M601.284 156V60.64H641.604C648.175 60.64 653.807 61.7493 658.5 63.968C663.194 66.1867 666.778 69.3867 669.252 73.568C671.727 77.664 672.964 82.656 672.964 88.544C672.964 92.7253 671.812 96.736 669.508 100.576C667.204 104.331 663.407 107.488 658.116 110.048V100.32C663.151 102.283 667.034 104.629 669.764 107.36C672.495 110.091 674.372 113.077 675.396 116.32C676.42 119.477 676.932 122.805 676.932 126.304C676.932 135.691 673.818 142.987 667.588 148.192C661.359 153.397 652.698 156 641.604 156H601.284ZM621.124 138.72H643.908C647.919 138.72 651.119 137.568 653.508 135.264C655.898 132.96 657.092 129.973 657.092 126.304C657.092 122.549 655.898 119.52 653.508 117.216C651.119 114.912 647.919 113.76 643.908 113.76H621.124V138.72ZM621.124 96.48H643.012C646.084 96.48 648.516 95.6267 650.308 93.92C652.186 92.128 653.124 89.7813 653.124 86.88C653.124 83.9787 652.186 81.6747 650.308 79.968C648.516 78.176 646.084 77.28 643.012 77.28H621.124V96.48ZM709.883 157.536C704.849 157.536 700.497 156.725 696.827 155.104C693.158 153.483 690.342 151.179 688.379 148.192C686.417 145.12 685.435 141.493 685.435 137.312C685.435 133.387 686.331 129.931 688.123 126.944C689.915 123.872 692.646 121.312 696.315 119.264C700.07 117.216 704.721 115.765 710.267 114.912L731.643 111.456V125.536L713.723 128.736C710.993 129.248 708.902 130.144 707.451 131.424C706.001 132.619 705.275 134.368 705.275 136.672C705.275 138.805 706.086 140.469 707.707 141.664C709.329 142.859 711.334 143.456 713.723 143.456C716.881 143.456 719.654 142.773 722.043 141.408C724.433 140.043 726.267 138.208 727.547 135.904C728.913 133.515 729.595 130.912 729.595 128.096V109.92C729.595 107.275 728.529 105.056 726.395 103.264C724.347 101.472 721.531 100.576 717.947 100.576C714.534 100.576 711.505 101.515 708.859 103.392C706.299 105.269 704.422 107.744 703.227 110.816L687.867 103.52C689.233 99.5947 691.409 96.224 694.395 93.408C697.382 90.592 700.966 88.416 705.147 86.88C709.329 85.344 713.894 84.576 718.843 84.576C724.731 84.576 729.937 85.6427 734.459 87.776C738.982 89.9093 742.481 92.896 744.955 96.736C747.515 100.491 748.795 104.885 748.795 109.92V156H730.875V144.736L735.227 143.968C733.179 147.04 730.918 149.6 728.443 151.648C725.969 153.611 723.195 155.061 720.123 156C717.051 157.024 713.638 157.536 709.883 157.536ZM762.876 156V86.112H780.796V99.936L779.772 96.864C781.394 92.6827 783.996 89.6107 787.58 87.648C791.25 85.6 795.516 84.576 800.38 84.576C805.671 84.576 810.279 85.6853 814.204 87.904C818.215 90.1227 821.33 93.2373 823.548 97.248C825.767 101.173 826.876 105.781 826.876 111.072V156H807.676V115.168C807.676 112.437 807.122 110.091 806.012 108.128C804.988 106.165 803.495 104.629 801.532 103.52C799.655 102.411 797.436 101.856 794.876 101.856C792.402 101.856 790.183 102.411 788.22 103.52C786.258 104.629 784.722 106.165 783.612 108.128C782.588 110.091 782.076 112.437 782.076 115.168V156H762.876ZM839.501 156V59.104H858.701V121.184L851.533 118.88L882.381 86.112H906.061L880.717 114.272L905.933 156H884.173L863.053 120.544L874.189 117.728L852.813 141.024L858.701 129.888V156H839.501ZM923.973 156V136.8H943.173V156H923.973Z" fill="black" fill-opacity="0.2"/>
</svg>
