<svg width="219" height="219" viewBox="0 0 219 219" fill="none" xmlns="http://www.w3.org/2000/svg">
<path d="M15.3844 115.405H94.3784C96.3998 115.405 98.3364 116.217 99.7531 117.659L147.14 165.89C147.554 166.311 148.023 166.68 148.51 167.014C157.517 173.204 159.16 184.819 159.449 193.306C159.593 197.529 156.043 201 151.818 201H130.132H101.801H87.9367H79.7992C40.5364 201 8.72694 169.134 8.79606 129.872L8.80998 121.968C8.81636 118.341 11.758 115.405 15.3844 115.405Z" fill="#C0ED54"/>
<path d="M79.7992 201V201C40.5364 201 8.72694 169.134 8.79606 129.872L8.80998 121.968C8.81636 118.341 11.758 115.405 15.3844 115.405H94.3784C96.3998 115.405 98.3364 116.217 99.7531 117.659L147.14 165.89C147.554 166.311 148.023 166.68 148.51 167.014C157.517 173.204 159.16 184.819 159.449 193.306C159.593 197.529 156.043 201 151.818 201H130.132M79.7992 201C71.5109 197.632 65.3324 187.725 63.9761 175.571M79.7992 201H87.9367H130.132M130.132 201C121.391 197.433 111.144 187.328 108.431 173.261M101.801 201C94.9116 194.878 87.9367 185.743 87.9367 175.571" stroke="#033225" stroke-width="6.02782" stroke-linecap="round"/>
<path d="M209.847 121.989L209.847 137.105C209.848 172.393 181.241 201 145.953 201C143.829 201 142.282 198.97 142.483 196.856C144.932 171.04 110.353 134.168 104.21 147.503C100.227 156.15 86.6215 158.733 76.728 159.44C71.4569 159.817 68.1385 154.427 70.3324 149.619L72.0701 145.811C72.6869 144.46 73.6896 143.32 74.9521 142.537L116.852 116.537C118.045 115.797 119.421 115.405 120.825 115.405H141.733H203.263C206.899 115.405 209.847 118.353 209.847 121.989Z" fill="#033225" stroke="#033225" stroke-width="6.02782" stroke-linecap="round"/>
<path d="M173.532 17.0003H202.465C206.627 17.0003 210 20.3737 210 24.5351V42.4679C210 48.3042 209.171 53.9469 207.623 59.2844C200.344 84.3918 177.176 102.746 149.722 102.746H113.254V77.2785C113.254 43.9878 140.241 17.0003 173.532 17.0003Z" fill="#033225"/>
<path d="M113.254 102.746V77.2785C113.254 43.9878 140.241 17.0003 173.532 17.0003H202.465C206.627 17.0003 210 20.3737 210 24.5351V42.4679C210 75.7586 183.013 102.746 149.722 102.746H113.254ZM113.254 102.746C140.529 78.7855 148.366 44.1255 210 59.8732" stroke="#C0ED54" stroke-width="6.02782"/>
<path d="M42.6982 17.0003H16.5109C12.1811 17.0003 8.67102 20.5103 8.67102 24.8402L8.67102 40.0267C8.67102 46.6932 9.71112 53.1168 11.6379 59.1441C19.7225 84.4342 43.418 102.746 71.3904 102.746H105.418V79.7197C105.418 45.0807 77.3372 17.0003 42.6982 17.0003Z" fill="#C0ED54"/>
<path d="M105.418 102.746V79.7197C105.418 45.0807 77.3372 17.0003 42.6982 17.0003H16.5109C12.1811 17.0003 8.67102 20.5103 8.67102 24.8402L8.67102 40.0267C8.67102 74.6657 36.7515 102.746 71.3904 102.746H105.418ZM105.418 102.746C78.1417 78.7855 70.3055 44.1255 8.67102 59.8732" stroke="#033225" stroke-width="6.02782"/>
</svg>
